<svg width="96" height="96" viewBox="0 0 96 96" fill="none" xmlns="http://www.w3.org/2000/svg">
<rect opacity="0.9" width="96" height="96" rx="8" fill="black"/>
<circle cx="29" cy="29" r="1" fill="white"/>
<circle cx="29" cy="36" r="1" fill="white"/>
<circle cx="29" cy="43" r="1" fill="white"/>
<circle cx="36" cy="29" r="1" fill="white"/>
<circle cx="36" cy="36" r="1" fill="white"/>
<circle cx="36" cy="43" r="1" fill="white"/>
<circle cx="43" cy="29" r="1" fill="white"/>
<circle cx="43" cy="36" r="1" fill="white"/>
<circle cx="43" cy="43" r="1" fill="white"/>
<circle cx="53" cy="29" r="1" fill="white"/>
<circle cx="53" cy="36" r="1" fill="white"/>
<circle cx="53" cy="43" r="1" fill="white"/>
<circle cx="60" cy="29" r="1" fill="white"/>
<circle cx="60" cy="36" r="1" fill="white"/>
<circle cx="60" cy="43" r="1" fill="white"/>
<circle cx="67" cy="29" r="1" fill="white"/>
<circle cx="67" cy="36" r="1" fill="white"/>
<circle cx="67" cy="43" r="1" fill="white"/>
<circle cx="29" cy="53" r="1" fill="white"/>
<circle cx="29" cy="60" r="1" fill="white"/>
<circle cx="29" cy="67" r="1" fill="white"/>
<circle cx="36" cy="53" r="1" fill="white"/>
<circle cx="36" cy="60" r="1" fill="white"/>
<circle cx="36" cy="67" r="1" fill="white"/>
<circle cx="43" cy="53" r="1" fill="white"/>
<circle cx="43" cy="60" r="1" fill="white"/>
<circle cx="43" cy="67" r="1" fill="white"/>
<circle cx="53" cy="53" r="1" fill="white"/>
<circle cx="53" cy="60" r="1" fill="white"/>
<circle cx="53" cy="67" r="1" fill="white"/>
<circle cx="60" cy="53" r="1" fill="white"/>
<circle cx="60" cy="60" r="1" fill="white"/>
<circle cx="60" cy="67" r="1" fill="white"/>
<circle cx="67" cy="53" r="1" fill="white"/>
<circle cx="67" cy="60" r="1" fill="white"/>
<circle cx="67" cy="67" r="1" fill="white"/>
</svg>
