<svg class="svg-icon" viewBox="0 0 20 20">
  <path fill="black" d="M18.378,1.062H3.855c-0.309,0-0.559,0.25-0.559,0.559c0,0.309,0.25,0.559,0.559,0.559h13.964v13.964
  c0,0.309,0.25,0.559,0.559,0.559c0.31,0,0.56-0.25,0.56-0.559V1.621C18.938,1.312,18.688,1.062,18.378,1.062z M16.144,3.296H1.621
  c-0.309,0-0.559,0.25-0.559,0.559v14.523c0,0.31,0.25,0.56,0.559,0.56h14.523c0.309,0,0.559-0.25,0.559-0.56V3.855
  C16.702,3.546,16.452,3.296,16.144,3.296z M15.586,17.262c0,0.31-0.25,0.558-0.56,0.558H2.738c-0.309,0-0.559-0.248-0.559-0.558
  V4.972c0-0.309,0.25-0.559,0.559-0.559h12.289c0.31,0,0.56,0.25,0.56,0.559V17.262z"></path>
</svg>
