<svg width="16" height="16" viewBox="0 0 16 16" fill="none" xmlns="http://www.w3.org/2000/svg">
<path d="M8 5V8" stroke="black" stroke-linecap="round" stroke-linejoin="round"/>
<path d="M10.5981 9.5L8 8" stroke="black" stroke-linecap="round" stroke-linejoin="round"/>
<path d="M4.48956 6.23193H1.98956V3.73193" stroke="black" stroke-linecap="round" stroke-linejoin="round"/>
<path d="M4.11094 11.8891C4.88013 12.6583 5.86014 13.1821 6.92703 13.3943C7.99393 13.6065 9.0998 13.4976 10.1048 13.0813C11.1098 12.6651 11.9688 11.9601 12.5731 11.0556C13.1775 10.1512 13.5 9.0878 13.5 8C13.5 6.91221 13.1775 5.84884 12.5731 4.94437C11.9688 4.0399 11.1098 3.33495 10.1048 2.91867C9.0998 2.50238 7.99393 2.39346 6.92703 2.60568C5.86014 2.8179 4.88013 3.34173 4.11094 4.11091L1.98962 6.23224" stroke="black" stroke-linecap="round" stroke-linejoin="round"/>
</svg>
