<svg width="12" height="12" viewBox="0 0 12 12" fill="none" xmlns="http://www.w3.org/2000/svg">
<path d="M6 -5.24537e-07C2.68503 -8.1434e-07 8.1434e-07 2.68503 5.24537e-07 6C2.34733e-07 9.31497 2.68503 12 6 12C9.31497 12 12 9.31497 12 6C12 2.68503 9.31497 -2.34733e-07 6 -5.24537e-07ZM6 0.723491C8.91892 0.723491 11.2765 3.08732 11.2765 6C11.2765 8.91892 8.91892 11.2765 6 11.2765C3.08108 11.2765 0.723492 8.91892 0.723492 6C0.723492 3.08732 3.08108 0.723491 6 0.723491ZM5.57588 9.19335L6.42412 9.19335L6.42 5.22L5.58 5.22L5.57588 9.19335ZM6 2.75676C5.69127 2.75676 5.43867 3.00935 5.43867 3.31809C5.43867 3.62682 5.69127 3.87942 6 3.87942C6.30873 3.87942 6.56133 3.62682 6.56133 3.31809C6.56133 3.00936 6.30873 2.75676 6 2.75676Z" fill="#B1B2B3"/>
</svg>
