<svg width="14" height="13" viewBox="0 0 14 13" fill="none" xmlns="http://www.w3.org/2000/svg">
<path d="M1 5L0.72265 4.58397C0.583551 4.67671 0.5 4.83282 0.5 5H1ZM13 5H13.5C13.5 4.83282 13.4164 4.67671 13.2774 4.58397L13 5ZM7 1L7.27735 0.583975C7.1094 0.472008 6.8906 0.472008 6.72265 0.583975L7 1ZM8.09094 8.5V9C8.195 9 8.29647 8.96753 8.3812 8.90712L8.09094 8.5ZM5.90906 8.5L5.6188 8.90712C5.70353 8.96753 5.805 9 5.90906 9V8.5ZM0.5 5V11.5H1.5V5H0.5ZM0.5 11.5C0.5 11.7652 0.605357 12.0196 0.792893 12.2071L1.5 11.5H1.5H0.5ZM0.792893 12.2071C0.98043 12.3946 1.23478 12.5 1.5 12.5V11.5H1.5L0.792893 12.2071ZM1.5 12.5H12.5V11.5H1.5V12.5ZM12.5 12.5C12.7652 12.5 13.0196 12.3946 13.2071 12.2071L12.5 11.5V12.5ZM13.2071 12.2071C13.3946 12.0196 13.5 11.7652 13.5 11.5H12.5L13.2071 12.2071ZM13.5 11.5V5H12.5V11.5H13.5ZM13.2774 4.58397L7.27735 0.583975L6.72265 1.41603L12.7226 5.41603L13.2774 4.58397ZM6.72265 0.583975L0.72265 4.58397L1.27735 5.41603L7.27735 1.41603L6.72265 0.583975ZM12.7097 4.59288L7.80067 8.09288L8.3812 8.90712L13.2903 5.40712L12.7097 4.59288ZM8.09094 8H5.90906V9H8.09094V8ZM6.19933 8.09288L1.29026 4.59288L0.709736 5.40712L5.6188 8.90712L6.19933 8.09288ZM5 7.5V4.75H4V7.5H5ZM4.75 5H9.25V4H4.75V5ZM9 4.75V7.5H10V4.75H9ZM9.25 5C9.11193 5 9 4.88807 9 4.75H10C10 4.33579 9.66421 4 9.25 4V5ZM5 4.75C5 4.88807 4.88807 5 4.75 5V4C4.33579 4 4 4.33579 4 4.75H5Z" fill="black"/>
</svg>
