<svg width="16" height="16" viewBox="0 0 16 16" fill="none" xmlns="http://www.w3.org/2000/svg">
<path fill-rule="evenodd" clip-rule="evenodd" d="M4.05556 5.11111C4.91467 5.11111 5.61111 4.41467 5.61111 3.55556C5.61111 2.69645 4.91467 2 4.05556 2C3.19645 2 2.5 2.69645 2.5 3.55556C2.5 4.41467 3.19645 5.11111 4.05556 5.11111ZM4.05556 6.11111C5.46695 6.11111 6.61111 4.96695 6.61111 3.55556C6.61111 2.14416 5.46695 1 4.05556 1C2.64416 1 1.5 2.14416 1.5 3.55556C1.5 4.96695 2.64416 6.11111 4.05556 6.11111Z" fill="white"/>
<path fill-rule="evenodd" clip-rule="evenodd" d="M3.55554 5.47217H4.55554V8.8055H5.99988V9.8055H4.55554V10.7222H6.6111V11.7222H4.55554V12.4999H3.55554V5.47217Z" fill="white"/>
<path fill-rule="evenodd" clip-rule="evenodd" d="M9.5 2.5H7V1.5H10.2071L13.5 4.79289V14.5H3.5V13.5H12.5V5.5H9.5V2.5ZM10.5 3.2071L11.7929 4.5H10.5V3.2071Z" fill="white"/>
</svg>
