<svg width="14" height="14" viewBox="0 0 14 14" fill="none" xmlns="http://www.w3.org/2000/svg">
<path d="M9.18806 10.1969C8.04395 11.0861 6.60411 11.5056 5.16172 11.37C3.71932 11.2344 2.38282 10.5538 1.42436 9.46684C0.465895 8.3799 -0.0424681 6.96833 0.00278089 5.51955C0.0480299 4.07077 0.643489 2.69371 1.66791 1.66876C2.69234 0.643816 4.0687 0.0480543 5.51674 0.00278231C6.96479 -0.0424897 8.37564 0.466132 9.46203 1.42508C10.5484 2.38404 11.2286 3.72121 11.3642 5.16434C11.4998 6.60747 11.0805 8.04805 10.1917 9.19274L14 12.9887L12.9892 14L9.19518 10.1969H9.18806ZM5.70012 9.96902C6.26099 9.96902 6.81637 9.85849 7.33454 9.64375C7.85272 9.429 8.32354 9.11425 8.72014 8.71745C9.11673 8.32066 9.43133 7.84959 9.64596 7.33115C9.8606 6.81271 9.97107 6.25705 9.97107 5.6959C9.97107 5.13474 9.8606 4.57908 9.64596 4.06064C9.43133 3.54221 9.11673 3.07114 8.72014 2.67434C8.32354 2.27755 7.85272 1.96279 7.33454 1.74805C6.81637 1.5333 6.26099 1.42278 5.70012 1.42278C4.56739 1.42278 3.48106 1.87298 2.6801 2.67434C1.87914 3.47571 1.42917 4.5626 1.42917 5.6959C1.42917 6.8292 1.87914 7.91609 2.6801 8.71745C3.48106 9.51882 4.56739 9.96902 5.70012 9.96902Z" fill="#7F7F7F"/>
</svg>
