<svg width="14" height="14" viewBox="0 0 14 14" fill="none" xmlns="http://www.w3.org/2000/svg">
<path fill-rule="evenodd" clip-rule="evenodd" d="M7.5 0.5V4.73077H6.5V0.5H7.5ZM4.80029 5.5074L2.03106 2.73817L2.73817 2.03106L5.5074 4.80029L4.80029 5.5074ZM8.4926 4.80029L11.2618 2.03106L11.9689 2.73817L9.19971 5.5074L8.4926 4.80029ZM9.26988 6.49519L13.5006 6.50065L13.4994 7.50064L9.26859 7.49519L9.26988 6.49519ZM0.5 6.49583H4.73077V7.49583H0.5V6.49583ZM5.5074 9.19971L2.73817 11.9689L2.03106 11.2618L4.80029 8.4926L5.5074 9.19971ZM11.2618 11.9689L8.4926 9.19971L9.19971 8.4926L11.9689 11.2618L11.2618 11.9689ZM7.5 9.26923V13.5H6.5V9.26923H7.5Z" fill="white"/>
</svg>
