<svg width="24" height="16" viewBox="0 0 24 16" fill="none" xmlns="http://www.w3.org/2000/svg">
<path d="M4.9133 3.51903C8.82718 -0.312985 15.1728 -0.312985 19.0867 3.51903L19.5578 3.98022C19.7535 4.17182 19.7535 4.48247 19.5578 4.67407L17.9464 6.25171C17.8486 6.34751 17.6899 6.34751 17.5921 6.25171L16.9439 5.61706C14.2135 2.94375 9.78657 2.94375 7.05614 5.61706L6.36196 6.29672C6.26412 6.39252 6.10547 6.39252 6.00763 6.29672L4.39629 4.71908C4.20059 4.52748 4.20059 4.21683 4.39629 4.02523L4.9133 3.51903ZM22.4191 6.78176L23.8532 8.18586C24.0489 8.37746 24.0489 8.68811 23.8532 8.87971L17.3868 15.211C17.1911 15.4026 16.8738 15.4026 16.6781 15.211C16.6781 15.211 16.6781 15.211 16.6781 15.211L12.0886 10.7175C12.0397 10.6696 11.9604 10.6696 11.9115 10.7175C11.9115 10.7175 11.9115 10.7175 11.9115 10.7175L7.32207 15.211C7.12638 15.4026 6.80909 15.4026 6.6134 15.211C6.6134 15.211 6.61339 15.211 6.61339 15.211L0.146771 8.87963C-0.0489235 8.68803 -0.0489235 8.37738 0.146771 8.18578L1.58087 6.78168C1.77656 6.59008 2.09385 6.59008 2.28954 6.78168L6.8791 11.2752C6.92802 11.3231 7.00734 11.3231 7.05626 11.2752C7.05626 11.2752 7.05626 11.2752 7.05627 11.2752L11.6456 6.78168C11.8413 6.59007 12.1586 6.59006 12.3543 6.78166C12.3543 6.78166 12.3543 6.78167 12.3543 6.78167L16.9438 11.2752C16.9927 11.3231 17.0721 11.3231 17.121 11.2752L21.7105 6.78176C21.9062 6.59016 22.2234 6.59016 22.4191 6.78176Z" fill="#3B99FC"/>
</svg>
