<svg width="13" height="12" viewBox="0 0 13 12" fill="none" xmlns="http://www.w3.org/2000/svg">
<path d="M0.5 2V10C0.5 10.2652 0.605357 10.5196 0.792893 10.7071C0.98043 10.8946 1.23478 11 1.5 11H11.5C11.6326 11 11.7598 10.9473 11.8536 10.8536C11.9473 10.7598 12 10.6326 12 10.5V3.5C12 3.36739 11.9473 3.24021 11.8536 3.14645C11.7598 3.05268 11.6326 3 11.5 3H10M0.5 2C0.5 2.26522 0.605357 2.51957 0.792893 2.70711C0.98043 2.89464 1.23478 3 1.5 3H10M0.5 2C0.5 1.73478 0.605357 1.48043 0.792893 1.29289C0.98043 1.10536 1.23478 1 1.5 1H10V3" stroke="black" stroke-linecap="round" stroke-linejoin="round"/>
</svg>
